<svg
  width="1283"
  height="610"
  viewBox="0 0 1283 610"
  fill="none"
  xmlns="http://www.w3.org/2000/svg"
>
  <defs>
    <radialGradient id="pulseGradient">
      <stop offset="10%" stop-color="#58F0D4" />
      <stop offset="95%" stop-color="#58F0D400" />
    </radialGradient>
    <linearGradient id="fadeGradient" gradientTransform="rotate(90)">
      <stop offset="0%" stop-color="#888888" />
      <stop offset="50%" stop-color="white" />
      <stop offset="100%" stop-color="#888888" />
    </linearGradient>
    <mask id="vignette">
      <rect x="0" y="0" width="1283" height="610" fill="url('#fadeGradient')" />
    </mask>
    <mask id="v-clip">
      <path
        vector-effect="non-scaling-stroke"
        d='M690.3,192c0,104.3-0.1,203.6-0.1,303.2l-428.3-0.5c-32.9-0.4-66.5-6.9-98.2-16.1c-37.5-10.9-62.8-39-64.8-78.3c-3.1-63.2-4-126.8,0-189.9c3.1-48.9,39.1-74.5,83.9-86.1c22.1-5.7,45.5-8.9,68.4-9.2l283.2-0.4l0,75.8l-275.2,0.7c-14.6,0.2-30.1,3.3-43.3,9.3c-29.9,13.6-26.4,42.1-26.1,68.8c115.8,0,229.4,0,344.3,0c0,22.6,0,43.6,0,66.8c-113.8,0-230.7-0.4-344.2-0.4c-1.6,36.8,3.3,61.4,25.4,73.4c10.7,5.8,24,9.5,36.2,9.6l343.2-0.1c0,0-0.2-168.5,0.3-242.4c0.1-11.7,1.9-24,5.9-34.9c7.6-20.7,25.7-26.3,45.9-26.5l62.3-0.5c39.2,0,60.5,14,82.7,39.6c0,0,217,243.8,228.3,254.2c4,3.7,12.3,7.8,15.3,6.1c4.1-2.3,7-10.2,7.1-15.7l0.4-282.8l94.5-0.1l-0.2,322.2c-0.4,42-18.5,58.1-57.3,57.8l-50.2,0.3c-41.1,0-66.8-14.9-91.3-43.6c0,0-213.2-238.8-226.4-251.3C707.4,196.6,699.7,195.7,690.3,192z'
        stroke="white"
        class="pulse"
      />
    </mask>
    <mask id="o-clip">
      <path
        vector-effect="non-scaling-stroke"
        d="M690.3,192c0,104.3-0.1,203.6-0.1,303.2l-428.3-0.5c-32.9-0.4-66.5-6.9-98.2-16.1c-37.5-10.9-62.8-39-64.8-78.3c-3.1-63.2-4-126.8,0-189.9c3.1-48.9,39.1-74.5,83.9-86.1c22.1-5.7,45.5-8.9,68.4-9.2l283.2-0.4l0,75.8l-275.2,0.7c-14.6,0.2-30.1,3.3-43.3,9.3c-29.9,13.6-26.4,42.1-26.1,68.8c115.8,0,229.4,0,344.3,0c0,22.6,0,43.6,0,66.8c-113.8,0-230.7-0.4-344.2-0.4c-1.6,36.8,3.3,61.4,25.4,73.4c10.7,5.8,24,9.5,36.2,9.6l343.2-0.1c0,0-0.2-168.5,0.3-242.4c0.1-11.7,1.9-24,5.9-34.9c7.6-20.7,25.7-26.3,45.9-26.5l62.3-0.5c39.2,0,60.5,14,82.7,39.6c0,0,217,243.8,228.3,254.2c4,3.7,12.3,7.8,15.3,6.1c4.1-2.3,7-10.2,7.1-15.7l0.4-282.8l94.5-0.1l-0.2,322.2c-0.4,42-18.5,58.1-57.3,57.8l-50.2,0.3c-41.1,0-66.8-14.9-91.3-43.6c0,0-213.2-238.8-226.4-251.3C707.4,196.6,699.7,195.7,690.3,192z"
        stroke="white"
        class="pulse"
      />
    </mask>
  </defs>
  <style>
    .vPath {
      offset-path: path(
        'M690.3,192c0,104.3-0.1,203.6-0.1,303.2l-428.3-0.5c-32.9-0.4-66.5-6.9-98.2-16.1c-37.5-10.9-62.8-39-64.8-78.3c-3.1-63.2-4-126.8,0-189.9c3.1-48.9,39.1-74.5,83.9-86.1c22.1-5.7,45.5-8.9,68.4-9.2l283.2-0.4l0,75.8l-275.2,0.7c-14.6,0.2-30.1,3.3-43.3,9.3c-29.9,13.6-26.4,42.1-26.1,68.8c115.8,0,229.4,0,344.3,0c0,22.6,0,43.6,0,66.8c-113.8,0-230.7-0.4-344.2-0.4c-1.6,36.8,3.3,61.4,25.4,73.4c10.7,5.8,24,9.5,36.2,9.6l343.2-0.1c0,0-0.2-168.5,0.3-242.4c0.1-11.7,1.9-24,5.9-34.9c7.6-20.7,25.7-26.3,45.9-26.5l62.3-0.5c39.2,0,60.5,14,82.7,39.6c0,0,217,243.8,228.3,254.2c4,3.7,12.3,7.8,15.3,6.1c4.1-2.3,7-10.2,7.1-15.7l0.4-282.8l94.5-0.1l-0.2,322.2c-0.4,42-18.5,58.1-57.3,57.8l-50.2,0.3c-41.1,0-66.8-14.9-91.3-43.6c0,0-213.2-238.8-226.4-251.3C707.4,196.6,699.7,195.7,690.3,192z'
      );
      animation:
        followpath 11s linear infinite,
        pulse 7s linear infinite;
      opacity: 0;
    }

    .oPath {
      offset-path: path(
        'M690.3,192c0,104.3-0.1,203.6-0.1,303.2l-428.3-0.5c-32.9-0.4-66.5-6.9-98.2-16.1c-37.5-10.9-62.8-39-64.8-78.3c-3.1-63.2-4-126.8,0-189.9c3.1-48.9,39.1-74.5,83.9-86.1c22.1-5.7,45.5-8.9,68.4-9.2l283.2-0.4l0,75.8l-275.2,0.7c-14.6,0.2-30.1,3.3-43.3,9.3c-29.9,13.6-26.4,42.1-26.1,68.8c115.8,0,229.4,0,344.3,0c0,22.6,0,43.6,0,66.8c-113.8,0-230.7-0.4-344.2-0.4c-1.6,36.8,3.3,61.4,25.4,73.4c10.7,5.8,24,9.5,36.2,9.6l343.2-0.1c0,0-0.2-168.5,0.3-242.4c0.1-11.7,1.9-24,5.9-34.9c7.6-20.7,25.7-26.3,45.9-26.5l62.3-0.5c39.2,0,60.5,14,82.7,39.6c0,0,217,243.8,228.3,254.2c4,3.7,12.3,7.8,15.3,6.1c4.1-2.3,7-10.2,7.1-15.7l0.4-282.8l94.5-0.1l-0.2,322.2c-0.4,42-18.5,58.1-57.3,57.8l-50.2,0.3c-41.1,0-66.8-14.9-91.3-43.6c0,0-213.2-238.8-226.4-251.3C707.4,196.6,699.7,195.7,690.3,192z'
      );
      animation:
        followpath 22s linear infinite,
        pulse 7s linear infinite;
      animation-delay: 3.5s;
      opacity: 0;
    }

    .dashed {
      stroke-dasharray: 3;
      stroke-width: 1;
    }
    .pulse {
      stroke-width: 3;
    }

    @-moz-document url-prefix() {
      .dashed {
        stroke-dasharray: 6;
        stroke-width: 2;
      }
      .pulse {
        stroke-width: 6;
      }
    }

    @media (prefers-reduced-motion) {
      .vPath { opacity: 0; }
      .oPath { opacity: 0; }
    }

    @keyframes followpath {
      to {
        offset-distance: 100%;
      }
    }

    @keyframes pulse {
      0% {
        opacity: 0;
      }
      40% {
        opacity: 0;
      }
      50% {
        opacity: 1;
      }
      60% {
        opacity: 0;
      }
      100% {
        opacity: 0;
      }
    }
  </style>
  <g mask="url(#vignette)">
    <g mask="url(#v-clip)">
      <circle r="100" fill="url('#pulseGradient')" class="vPath" />
    </g>
    <g mask="url(#o-clip)">
      <circle r="100" fill="url('#pulseGradient')" class="oPath" />
    </g>
    <path
      vector-effect="non-scaling-stroke"
      d="M690.3,192c0,104.3-0.1,203.6-0.1,303.2l-428.3-0.5c-32.9-0.4-66.5-6.9-98.2-16.1
		c-37.5-10.9-62.8-39-64.8-78.3c-3.1-63.2-4-126.8,0-189.9c3.1-48.9,39.1-74.5,83.9-86.1c22.1-5.7,45.5-8.9,68.4-9.2l283.2-0.4
		l0,75.8l-275.2,0.7c-14.6,0.2-30.1,3.3-43.3,9.3c-29.9,13.6-26.4,42.1-26.1,68.8c115.8,0,229.4,0,344.3,0c0,22.6,0,43.6,0,66.8
		c-113.8,0-230.7-0.4-344.2-0.4c-1.6,36.8,3.3,61.4,25.4,73.4c10.7,5.8,24,9.5,36.2,9.6l343.2-0.1c0,0-0.2-168.5,0.3-242.4
		c0.1-11.7,1.9-24,5.9-34.9c7.6-20.7,25.7-26.3,45.9-26.5l62.3-0.5c39.2,0,60.5,14,82.7,39.6c0,0,217,243.8,228.3,254.2
		c4,3.7,12.3,7.8,15.3,6.1c4.1-2.3,7-10.2,7.1-15.7l0.4-282.8l94.5-0.1l-0.2,322.2c-0.4,42-18.5,58.1-57.3,57.8l-50.2,0.3
		c-41.1,0-66.8-14.9-91.3-43.6c0,0-213.2-238.8-226.4-251.3C707.4,196.6,699.7,195.7,690.3,192z"
      stroke="#DDDDDD"
      class="dashed"
    />
  </g>
</svg>
