<svg
  id="eM1yEGkr5PO1"
  xmlns="http://www.w3.org/2000/svg"
  xmlns:xlink="http://www.w3.org/1999/xlink"
  viewBox="0 0 800 238.2"
  shape-rendering="geometricPrecision"
  text-rendering="geometricPrecision"
  project-id="00fec3a6adcd4a2ba0b2adffa38585c8"
  export-id="a73d9f4fdeaf4447b3d127befba34614"
  cached="false"
>
  <style>
    <![CDATA[
    #eM1yEGkr5PO2_to {animation: eM1yEGkr5PO2_to__to 4000ms linear 1 normal forwards}@keyframes eM1yEGkr5PO2_to__to { 0% {transform: translate(1240.550018px,119.099999px);animation-timing-function: cubic-bezier(0.25,1,0.25,1)} 25% {transform: translate(456.850018px,119.099999px)} 100% {transform: translate(456.850018px,119.099999px)}} #eM1yEGkr5PO3_to {animation: eM1yEGkr5PO3_to__to 4000ms linear 1 normal forwards}@keyframes eM1yEGkr5PO3_to__to { 0% {transform: translate(513.700012px,119.099998px);animation-timing-function: cubic-bezier(0.25,1,0.25,1)} 50% {transform: translate(413.700012px,119.099998px)} 100% {transform: translate(408.700012px,119.099998px)}} #eM1yEGkr5PO23_tr {animation: eM1yEGkr5PO23_tr__tr 4000ms linear 1 normal forwards}@keyframes eM1yEGkr5PO23_tr__tr { 0% {transform: translate(135.33781px,207.03926px) rotate(720deg);animation-timing-function: cubic-bezier(0.415,0.08,0.115,0.955)} 100% {transform: translate(135.33781px,207.03926px) rotate(345.974026deg)}} #eM1yEGkr5PO24_tr {animation: eM1yEGkr5PO24_tr__tr 4000ms linear 1 normal forwards}@keyframes eM1yEGkr5PO24_tr__tr { 0% {transform: translate(11.12px,29.9px) rotate(-720deg);animation-timing-function: cubic-bezier(0.415,0.08,0.115,0.955)} 100% {transform: translate(11.12px,29.9px) rotate(-345.974026deg)}}
    ]]>
  </style>
  <defs>
    <linearGradient
      id="eM1yEGkr5PO17-fill"
      x1="0.5"
      y1="0"
      x2="0.5"
      y2="1"
      spreadMethod="pad"
      gradientUnits="objectBoundingBox"
      gradientTransform="translate(0 0)"
    >
      <stop
        id="eM1yEGkr5PO17-fill-0"
        offset="0%"
        stop-color="rgba(255,255,255,0)"
      />
      <stop id="eM1yEGkr5PO17-fill-1" offset="100%" stop-color="#010022" />
    </linearGradient>
  </defs>
  <g id="eM1yEGkr5PO2_to" transform="translate(1240.550018,119.099999)">
    <g transform="translate(-456.850017,-119.099998)">
      <g id="eM1yEGkr5PO3_to" transform="translate(513.700012,119.099998)">
        <g transform="translate(-400.000011,-119.099998)">
          <path
            d="M105.2,201.6h-68.9v-157.4h61.2c10.7,0,19.9,1.3,27.6,3.8c7.7,2.6,13.5,6,17.5,10.4c7.1,8.1,10.6,17.3,10.6,27.5c0,12.3-4,21.5-11.9,27.5-2.7,2.1-4.6,3.4-5.6,3.9-1.1.5-2.9,1.4-5.6,2.6c9.8,2.1,17.5,6.5,23.3,13.2s8.7,15,8.7,24.9c0,11-3.8,20.6-11.3,29-8.9,9.7-24,14.6-45.6,14.6ZM71.4,107.9h16.6c9.8,0,17-1,21.7-3.2c4.7-2.1,7.1-6.6,7.1-13.6s-2.2-11.6-6.5-13.8c-4.4-2.3-11.7-3.4-22.1-3.4h-16.8v34Zm0,64h24.1c10.1,0,17.6-1.2,22.6-3.7s7.5-7.4,7.5-14.6c0-7.3-2.7-12.1-8-14.4s-13.8-3.5-25.6-3.5h-20.6v36.2Z"
            fill="none"
            stroke="#ddd"
            stroke-miterlimit="10"
            stroke-dasharray="3"
          />
          <path
            d="M308,141c0,17.6-6.1,32.4-18.2,44.4-12.2,12-27.4,18-45.8,18s-33.7-6-45.8-18C186,173.4,180,158.6,180,141s6.1-32.4,18.2-44.5c12.2-12.1,27.4-18.1,45.8-18.1s33.7,6,45.8,18.1C302,108.6,308,123.5,308,141Zm-94.1,0c0,9.9,2.8,18,8.4,24.2s12.8,9.3,21.6,9.3s16-3.1,21.6-9.3s8.4-14.3,8.4-24.2-2.8-18-8.4-24.3-12.8-9.5-21.6-9.5-16,3.2-21.6,9.5-8.4,14.4-8.4,24.3Z"
            fill="none"
            stroke="#ddd"
            stroke-miterlimit="10"
            stroke-dasharray="3"
          />
          <path
            d="M454.2,141c0,17.6-6.1,32.4-18.2,44.4-12.2,12-27.4,18-45.8,18s-33.7-6-45.8-18c-12.2-12-18.2-26.8-18.2-44.4s6.1-32.4,18.2-44.5c12.2-12.1,27.4-18.1,45.8-18.1s33.7,6,45.8,18.1s18.2,27,18.2,44.5ZM360,141c0,9.9,2.8,18,8.4,24.2s12.8,9.3,21.6,9.3s16-3.1,21.6-9.3s8.4-14.3,8.4-24.2-2.8-18-8.4-24.3-12.8-9.5-21.6-9.5-16,3.2-21.6,9.5-8.4,14.4-8.4,24.3Z"
            fill="none"
            stroke="#ddd"
            stroke-miterlimit="10"
            stroke-dasharray="3"
          />
          <path
            d="M512.9,201.6h-33.8v-167.1h33.8v85.8l37.6-40.1h42.6l-46.2,49.1l48,72.3h-40.1L524,155.2l-11,11.5-.1,34.9v0Z"
            fill="none"
            stroke="#ddd"
            stroke-miterlimit="10"
            stroke-dasharray="3"
          />
          <path
            d="M701.8,163.9c0,11.9-4.4,21.5-13.2,28.7s-19.9,10.8-33.4,10.8c-9,0-18.4-1.6-28.1-4.8-9.8-3.2-18.5-8-26.3-14.3l14.9-21.2c12.6,9.8,26,14.6,40.3,14.6c4.4,0,7.8-.9,10.4-2.6s3.8-4,3.8-6.9c0-2.8-1.8-5.5-5.3-7.9s-8.6-4.7-15.3-6.8-11.8-3.9-15.3-5.4-7.5-3.7-12-6.5c-9.2-5.7-13.7-14.1-13.7-25.3s4.5-20.3,13.5-27.4s20.6-10.6,34.9-10.6s28.5,4.8,42.8,14.4L687,115.4c-10.5-7.2-21-10.8-31.4-10.8s-15.6,2.9-15.6,8.6c0,3.2,1.7,5.6,5,7.4s8.8,3.9,16.4,6.3c7.7,2.4,13.1,4.2,16.3,5.5s7.1,3.3,11.6,6c8.3,5,12.5,13.5,12.5,25.5Z"
            fill="none"
            stroke="#ddd"
            stroke-miterlimit="10"
            stroke-dasharray="3"
          />
          <path
            d="M753.9,203.7h-20.4c-5.4,0-9.8-4.4-9.8-9.8v-20.4c0-5.4,4.4-9.8,9.8-9.8h20.4c5.4,0,9.8,4.4,9.8,9.8v20.4c0,5.4-4.3,9.8-9.8,9.8Z"
            fill="none"
            stroke="#ddd"
            stroke-miterlimit="10"
            stroke-dasharray="3"
          />
        </g>
      </g>
      <g>
        <path
          d="M105.2,201.6h-68.9v-157.4h61.2c10.7,0,19.9,1.3,27.6,3.8c7.7,2.6,13.5,6,17.5,10.4c7.1,8.1,10.6,17.3,10.6,27.5c0,12.3-4,21.5-11.9,27.5-2.7,2.1-4.6,3.4-5.6,3.9-1.1.5-2.9,1.4-5.6,2.6c9.8,2.1,17.5,6.5,23.3,13.2s8.7,15,8.7,24.9c0,11-3.8,20.6-11.3,29-8.9,9.7-24,14.6-45.6,14.6ZM71.4,107.9h16.6c9.8,0,17-1,21.7-3.2c4.7-2.1,7.1-6.6,7.1-13.6s-2.2-11.6-6.5-13.8c-4.4-2.3-11.7-3.4-22.1-3.4h-16.8v34Zm0,64h24.1c10.1,0,17.6-1.2,22.6-3.7s7.5-7.4,7.5-14.6c0-7.3-2.7-12.1-8-14.4s-13.8-3.5-25.6-3.5h-20.6v36.2Z"
          fill="#111827"
        />
        <path
          d="M308,141c0,17.6-6.1,32.4-18.2,44.4-12.2,12-27.4,18-45.8,18s-33.7-6-45.8-18C186,173.4,180,158.6,180,141s6.1-32.4,18.2-44.5c12.2-12.1,27.4-18.1,45.8-18.1s33.7,6,45.8,18.1C302,108.6,308,123.5,308,141Zm-94.1,0c0,9.9,2.8,18,8.4,24.2s12.8,9.3,21.6,9.3s16-3.1,21.6-9.3s8.4-14.3,8.4-24.2-2.8-18-8.4-24.3-12.8-9.5-21.6-9.5-16,3.2-21.6,9.5-8.4,14.4-8.4,24.3Z"
          fill="#111827"
        />
        <path
          d="M454.2,141c0,17.6-6.1,32.4-18.2,44.4-12.2,12-27.4,18-45.8,18s-33.7-6-45.8-18c-12.2-12-18.2-26.8-18.2-44.4s6.1-32.4,18.2-44.5c12.2-12.1,27.4-18.1,45.8-18.1s33.7,6,45.8,18.1s18.2,27,18.2,44.5ZM360,141c0,9.9,2.8,18,8.4,24.2s12.8,9.3,21.6,9.3s16-3.1,21.6-9.3s8.4-14.3,8.4-24.2-2.8-18-8.4-24.3-12.8-9.5-21.6-9.5-16,3.2-21.6,9.5-8.4,14.4-8.4,24.3Z"
          fill="#111827"
        />
        <path
          d="M512.9,201.6h-33.8v-167.1h33.8v85.8l37.6-40.1h42.6l-46.2,49.1l48,72.3h-40.1L524,155.2l-11,11.5v34.9h-.1Z"
          fill="#111827"
        />
        <path
          d="M701.8,163.9c0,11.9-4.4,21.5-13.2,28.7s-19.9,10.8-33.4,10.8c-9,0-18.4-1.6-28.1-4.8-9.8-3.2-18.5-8-26.3-14.3l14.9-21.2c12.6,9.8,26,14.6,40.3,14.6c4.4,0,7.8-.9,10.4-2.6s3.8-4,3.8-6.9c0-2.8-1.8-5.5-5.3-7.9s-8.6-4.7-15.3-6.8-11.8-3.9-15.3-5.4-7.5-3.7-12-6.5c-9.2-5.7-13.7-14.1-13.7-25.3s4.5-20.3,13.5-27.4s20.6-10.6,34.9-10.6s28.5,4.8,42.8,14.4L687,115.4c-10.5-7.2-21-10.8-31.4-10.8s-15.6,2.9-15.6,8.6c0,3.2,1.7,5.6,5,7.4s8.8,3.9,16.4,6.3c7.7,2.4,13.1,4.2,16.3,5.5s7.1,3.3,11.6,6c8.3,5,12.5,13.5,12.5,25.5Z"
          fill="#111827"
        />
        <path
          d="M753.9,203.7h-20.4c-5.4,0-9.8-4.4-9.8-9.8v-20.4c0-5.4,4.4-9.8,9.8-9.8h20.4c5.4,0,9.8,4.4,9.8,9.8v20.4c0,5.4-4.3,9.8-9.8,9.8Z"
          fill="#17ddfe"
        />
      </g>
    </g>
  </g>
</svg>
