<?xml version="1.0" encoding="utf-8"?>
<!-- Generator: Adobe Illustrator 26.2.1, SVG Export Plug-In . SVG Version: 6.00 Build 0)  -->
<svg version="1.1" id="Layer_1" xmlns="http://www.w3.org/2000/svg" xmlns:xlink="http://www.w3.org/1999/xlink" x="0px" y="0px"
	 viewBox="0 0 734.8 238.2" style="enable-background:new 0 0 734.8 238.2;" xml:space="preserve">
<style type="text/css">
	.st0{fill:none;stroke:#DDDDDD;stroke-miterlimit:10;stroke-dasharray:3;stroke-width:1;}
	.st1{fill:#111827;}
	.st2{fill:#17DDFE;}
</style>
<g>
	<path class="st0" d="M135.6,37.6h36v161.1h-36l-76.8-101v101h-36V37.6h33.7l79.1,103.7V37.6z"/>
	<path class="st0" d="M315.2,180.8c-14,13.2-30.4,19.8-49.2,19.8c-18.8,0-34.4-5.8-46.7-17.4c-12.3-11.6-18.4-27.2-18.4-46.7
		c0-19.5,6.3-35,18.8-46.6C232.2,78.4,247,72.6,264,72.6c17.1,0,31.5,5.2,43.5,15.4c11.9,10.3,17.9,24.4,17.9,42.4V149H235
		c1.1,6.8,4.6,12.3,10.6,16.6c6,4.3,12.8,6.5,20.3,6.5c12.1,0,22.1-4.1,30-12.2L315.2,180.8z M282,107.2c-4.8-4-10.6-6-17.4-6
		c-6.8,0-13.1,2.1-18.8,6.2c-5.7,4.1-9,9.8-9.9,16.8h54.4C289.5,116.9,286.8,111.2,282,107.2z"/>
	<path class="st0" d="M413.6,198.7h-35.7l-42.2-124h35.7l24.2,74.9l24.2-74.9h33.4l24.2,74.9l24.2-74.9h36l-42.2,124h-36l-22.8-67.5
		L413.6,198.7z"/>
	<path class="st0" d="M648.5,160.1c0,12.2-4.5,22-13.5,29.4c-9,7.4-20.4,11.1-34.2,11.1c-9.2,0-18.8-1.7-28.8-5
		c-10-3.3-19-8.2-27-14.6l15.2-21.7c12.9,10,26.7,15,41.3,15c4.5,0,8-0.9,10.6-2.7c2.6-1.8,3.9-4.1,3.9-7c0-2.9-1.8-5.6-5.4-8.1
		c-3.6-2.5-8.8-4.8-15.7-6.9c-6.8-2.2-12.1-4-15.7-5.5c-3.6-1.5-7.7-3.8-12.3-6.7c-9.4-5.8-14.1-14.5-14.1-25.9
		c0-11.4,4.6-20.8,13.8-28c9.2-7.2,21.1-10.8,35.7-10.8c14.6,0,29.2,4.9,43.8,14.8l-12.9,23.1c-10.8-7.4-21.5-11.1-32.2-11.1
		c-10.7,0-16,2.9-16,8.8c0,3.2,1.7,5.8,5.1,7.6c3.4,1.8,9,4,16.8,6.5c7.8,2.5,13.4,4.3,16.7,5.6c3.3,1.3,7.3,3.3,11.9,6.1
		C644.2,139.2,648.5,147.9,648.5,160.1z"/>
	<path class="st0" d="M702.1,198.7h-20.4c-5.4,0-9.8-4.4-9.8-9.8v-20.4c0-5.4,4.4-9.8,9.8-9.8h20.4c5.4,0,9.8,4.4,9.8,9.8v20.4
		C711.9,194.3,707.6,198.7,702.1,198.7z"/>
</g>
<g>
	<path class="st1" d="M135.6,37.6h36v161.1h-36l-76.8-101v101h-36V37.6h33.7l79.1,103.7V37.6z"/>
	<path class="st1" d="M315.2,180.8c-14,13.2-30.4,19.8-49.2,19.8c-18.8,0-34.4-5.8-46.7-17.4c-12.3-11.6-18.4-27.2-18.4-46.7
		c0-19.5,6.3-35,18.8-46.6C232.2,78.4,247,72.6,264,72.6c17.1,0,31.5,5.2,43.5,15.4c11.9,10.3,17.9,24.4,17.9,42.4V149H235
		c1.1,6.8,4.6,12.3,10.6,16.6c6,4.3,12.8,6.5,20.3,6.5c12.1,0,22.1-4.1,30-12.2L315.2,180.8z M282,107.2c-4.8-4-10.6-6-17.4-6
		c-6.8,0-13.1,2.1-18.8,6.2c-5.7,4.1-9,9.8-9.9,16.8h54.4C289.5,116.9,286.8,111.2,282,107.2z"/>
	<path class="st1" d="M413.6,198.7h-35.7l-42.2-124h35.7l24.2,74.9l24.2-74.9h33.4l24.2,74.9l24.2-74.9h36l-42.2,124h-36l-22.8-67.5
		L413.6,198.7z"/>
	<path class="st1" d="M648.5,160.1c0,12.2-4.5,22-13.5,29.4c-9,7.4-20.4,11.1-34.2,11.1c-9.2,0-18.8-1.7-28.8-5
		c-10-3.3-19-8.2-27-14.6l15.2-21.7c12.9,10,26.7,15,41.3,15c4.5,0,8-0.9,10.6-2.7c2.6-1.8,3.9-4.1,3.9-7c0-2.9-1.8-5.6-5.4-8.1
		c-3.6-2.5-8.8-4.8-15.7-6.9c-6.8-2.2-12.1-4-15.7-5.5c-3.6-1.5-7.7-3.8-12.3-6.7c-9.4-5.8-14.1-14.5-14.1-25.9
		c0-11.4,4.6-20.8,13.8-28c9.2-7.2,21.1-10.8,35.7-10.8c14.6,0,29.2,4.9,43.8,14.8l-12.9,23.1c-10.8-7.4-21.5-11.1-32.2-11.1
		c-10.7,0-16,2.9-16,8.8c0,3.2,1.7,5.8,5.1,7.6c3.4,1.8,9,4,16.8,6.5c7.8,2.5,13.4,4.3,16.7,5.6c3.3,1.3,7.3,3.3,11.9,6.1
		C644.2,139.2,648.5,147.9,648.5,160.1z"/>
	<path class="st2" d="M702.1,198.7h-20.4c-5.4,0-9.8-4.4-9.8-9.8v-20.4c0-5.4,4.4-9.8,9.8-9.8h20.4c5.4,0,9.8,4.4,9.8,9.8v20.4
		C711.9,194.3,707.6,198.7,702.1,198.7z"/>
</g>
</svg>
