<svg
  id="erNnqs9k8A11"
  xmlns="http://www.w3.org/2000/svg"
  xmlns:xlink="http://www.w3.org/1999/xlink"
  viewBox="0 0 734.8 238.2"
  shape-rendering="geometricPrecision"
  text-rendering="geometricPrecision"
  project-id="8b6c2d7bbd504681912723806465d6f6"
  export-id="a8f5af29be804073aea96aaeb3c95fca"
  cached="false"
>
  <style>
    <![CDATA[
    #erNnqs9k8A12_to {animation: erNnqs9k8A12_to__to 4000ms linear 1 normal forwards}@keyframes erNnqs9k8A12_to__to { 0% {transform: translate(1458.150024px,119.099998px);animation-timing-function: cubic-bezier(0.25,1,0.25,1)} 25% {transform: translate(730.950026px,119.099998px)} 100% {transform: translate(730.950026px,119.099998px)}} #erNnqs9k8A13_to {animation: erNnqs9k8A13_to__to 4000ms linear 1 normal forwards}@keyframes erNnqs9k8A13_to__to { 0% {transform: translate(1094.549992px,119.099998px);animation-timing-function: cubic-bezier(0.25,1,0.25,1)} 50% {transform: translate(389.549992px,119.099998px)} 100% {transform: translate(384.549992px,119.099998px)}} #erNnqs9k8A121_tr {animation: erNnqs9k8A121_tr__tr 4000ms linear 1 normal forwards}@keyframes erNnqs9k8A121_tr__tr { 0% {transform: translate(135.33781px,207.03926px) rotate(720deg);animation-timing-function: cubic-bezier(0.415,0.08,0.115,0.955)} 100% {transform: translate(135.33781px,207.03926px) rotate(345.974026deg)}} #erNnqs9k8A122_tr {animation: erNnqs9k8A122_tr__tr 4000ms linear 1 normal forwards}@keyframes erNnqs9k8A122_tr__tr { 0% {transform: translate(11.12px,29.9px) rotate(-720deg);animation-timing-function: cubic-bezier(0.415,0.08,0.115,0.955)} 100% {transform: translate(11.12px,29.9px) rotate(-345.974026deg)}}
    ]]>
  </style>
  <defs>
    <linearGradient
      id="erNnqs9k8A115-fill"
      x1="0.5"
      y1="0"
      x2="0.5"
      y2="1"
      spreadMethod="pad"
      gradientUnits="objectBoundingBox"
      gradientTransform="translate(0 0)"
    >
      <stop
        id="erNnqs9k8A115-fill-0"
        offset="0%"
        stop-color="rgba(255,255,255,0)"
      />
      <stop id="erNnqs9k8A115-fill-1" offset="100%" stop-color="#010022" />
    </linearGradient>
  </defs>
  <g id="erNnqs9k8A12_to" transform="translate(1458.150024,119.099998)">
    <g transform="translate(-730.950025,-119.099998)">
      <g id="erNnqs9k8A13_to" transform="translate(1094.549992,119.099998)">
        <g transform="translate(-367.349991,-119.099998)">
          <path
            d="M135.6,37.6h36v161.1h-36L58.8,97.7v101h-36v-161.1h33.7l79.1,103.7v-103.7Z"
            fill="none"
            stroke="#ddd"
            stroke-miterlimit="10"
            stroke-dasharray="3"
          />
          <path
            d="M315.2,180.8c-14,13.2-30.4,19.8-49.2,19.8s-34.4-5.8-46.7-17.4-18.4-27.2-18.4-46.7s6.3-35,18.8-46.6C232.2,78.4,247,72.6,264,72.6c17.1,0,31.5,5.2,43.5,15.4c11.9,10.3,17.9,24.4,17.9,42.4v18.6h-90.4c1.1,6.8,4.6,12.3,10.6,16.6s12.8,6.5,20.3,6.5c12.1,0,22.1-4.1,30-12.2l19.3,20.9ZM282,107.2c-4.8-4-10.6-6-17.4-6s-13.1,2.1-18.8,6.2-9,9.8-9.9,16.8h54.4c-.8-7.3-3.5-13-8.3-17Z"
            fill="none"
            stroke="#ddd"
            stroke-miterlimit="10"
            stroke-dasharray="3"
          />
          <path
            d="M413.6,198.7h-35.7l-42.2-124h35.7l24.2,74.9l24.2-74.9h33.4l24.2,74.9l24.2-74.9h36l-42.2,124h-36l-22.8-67.5-23,67.5Z"
            fill="none"
            stroke="#ddd"
            stroke-miterlimit="10"
            stroke-dasharray="3"
          />
          <path
            d="M648.5,160.1c0,12.2-4.5,22-13.5,29.4s-20.4,11.1-34.2,11.1c-9.2,0-18.8-1.7-28.8-5s-19-8.2-27-14.6l15.2-21.7c12.9,10,26.7,15,41.3,15c4.5,0,8-.9,10.6-2.7s3.9-4.1,3.9-7-1.8-5.6-5.4-8.1-8.8-4.8-15.7-6.9c-6.8-2.2-12.1-4-15.7-5.5s-7.7-3.8-12.3-6.7c-9.4-5.8-14.1-14.5-14.1-25.9s4.6-20.8,13.8-28s21.1-10.8,35.7-10.8s29.2,4.9,43.8,14.8l-12.9,23.1c-10.8-7.4-21.5-11.1-32.2-11.1s-16,2.9-16,8.8c0,3.2,1.7,5.8,5.1,7.6s9,4,16.8,6.5s13.4,4.3,16.7,5.6s7.3,3.3,11.9,6.1c8.7,5.1,13,13.8,13,26Z"
            fill="none"
            stroke="#ddd"
            stroke-miterlimit="10"
            stroke-dasharray="3"
          />
          <path
            d="M702.1,198.7h-20.4c-5.4,0-9.8-4.4-9.8-9.8v-20.4c0-5.4,4.4-9.8,9.8-9.8h20.4c5.4,0,9.8,4.4,9.8,9.8v20.4c0,5.4-4.3,9.8-9.8,9.8Z"
            fill="none"
            stroke="#ddd"
            stroke-miterlimit="10"
            stroke-dasharray="3"
          />
        </g>
      </g>
      <g transform="translate(.000001 0)">
        <path
          d="M135.6,37.6h36v161.1h-36L58.8,97.7v101h-36v-161.1h33.7l79.1,103.7v-103.7Z"
          fill="#111827"
        />
        <path
          d="M315.2,180.8c-14,13.2-30.4,19.8-49.2,19.8s-34.4-5.8-46.7-17.4-18.4-27.2-18.4-46.7s6.3-35,18.8-46.6C232.2,78.4,247,72.6,264,72.6c17.1,0,31.5,5.2,43.5,15.4c11.9,10.3,17.9,24.4,17.9,42.4v18.6h-90.4c1.1,6.8,4.6,12.3,10.6,16.6s12.8,6.5,20.3,6.5c12.1,0,22.1-4.1,30-12.2l19.3,20.9ZM282,107.2c-4.8-4-10.6-6-17.4-6s-13.1,2.1-18.8,6.2-9,9.8-9.9,16.8h54.4c-.8-7.3-3.5-13-8.3-17Z"
          fill="#111827"
        />
        <path
          d="M413.6,198.7h-35.7l-42.2-124h35.7l24.2,74.9l24.2-74.9h33.4l24.2,74.9l24.2-74.9h36l-42.2,124h-36l-22.8-67.5-23,67.5Z"
          fill="#111827"
        />
        <path
          d="M648.5,160.1c0,12.2-4.5,22-13.5,29.4s-20.4,11.1-34.2,11.1c-9.2,0-18.8-1.7-28.8-5s-19-8.2-27-14.6l15.2-21.7c12.9,10,26.7,15,41.3,15c4.5,0,8-.9,10.6-2.7s3.9-4.1,3.9-7-1.8-5.6-5.4-8.1-8.8-4.8-15.7-6.9c-6.8-2.2-12.1-4-15.7-5.5s-7.7-3.8-12.3-6.7c-9.4-5.8-14.1-14.5-14.1-25.9s4.6-20.8,13.8-28s21.1-10.8,35.7-10.8s29.2,4.9,43.8,14.8l-12.9,23.1c-10.8-7.4-21.5-11.1-32.2-11.1s-16,2.9-16,8.8c0,3.2,1.7,5.8,5.1,7.6s9,4,16.8,6.5s13.4,4.3,16.7,5.6s7.3,3.3,11.9,6.1c8.7,5.1,13,13.8,13,26Z"
          fill="#111827"
        />
        <path
          d="M702.1,198.7h-20.4c-5.4,0-9.8-4.4-9.8-9.8v-20.4c0-5.4,4.4-9.8,9.8-9.8h20.4c5.4,0,9.8,4.4,9.8,9.8v20.4c0,5.4-4.3,9.8-9.8,9.8Z"
          fill="#17ddfe"
        />
      </g>
    </g>
  </g>
</svg>
